<svg width="0" height="0" class="hidden">
  <symbol fill="none" xmlns="http://www.w3.org/2000/svg" viewBox="0 0 63 52" id="aspect_ratio">
    <path d="M51.0873 25.5436H45.4109V34.0581H36.8964V39.7345H51.0873V25.5436ZM17.0291 17.0291H25.5436V11.3527H11.3527V25.5436H17.0291V17.0291ZM56.7636 0H5.67636C4.1709 0 2.72709 0.598042 1.66257 1.66256C0.598044 2.72709 0 4.17089 0 5.67635V45.4108C0 46.9163 0.598044 48.3601 1.66257 49.4246C2.72709 50.4891 4.1709 51.0872 5.67636 51.0872H56.7636C58.2691 51.0872 59.7129 50.4891 60.7774 49.4246C61.842 48.3601 62.44 46.9163 62.44 45.4108V5.67635C62.44 4.17089 61.842 2.72709 60.7774 1.66256C59.7129 0.598042 58.2691 0 56.7636 0ZM56.7636 45.4108H5.67636V5.67635H56.7636V45.4108Z" fill="#03D6F3"></path>
  </symbol>
  <symbol fill="none" xmlns="http://www.w3.org/2000/svg" viewBox="0 0 62 63" id="alarm_light">
    <path d="M13.2857 17.5932L6.99714 11.2716L11.16 7.06711L17.419 13.4186L13.2857 17.5932ZM33.9524 0V8.9457H28.0476V0H33.9524ZM55.0029 11.2716L48.7143 17.5932L44.581 13.4186L50.84 7.06711L55.0029 11.2716ZM8.85714 28.3281V34.2919H0V28.3281H8.85714ZM53.1429 28.3281H62V34.2919H53.1429V28.3281ZM13.2857 56.6561H48.7143C50.2803 56.6561 51.7822 57.2845 52.8896 58.4029C53.9969 59.5213 54.619 61.0382 54.619 62.6199H7.38095C7.38095 61.0382 8.00306 59.5213 9.11042 58.4029C10.2178 57.2845 11.7197 56.6561 13.2857 56.6561ZM31 11.9276C35.6981 11.9276 40.2038 13.8126 43.5259 17.1679C46.848 20.5232 48.7143 25.0739 48.7143 29.819V53.6742H13.2857V29.819C13.2857 25.0739 15.152 20.5232 18.4741 17.1679C21.7962 13.8126 26.3019 11.9276 31 11.9276Z" fill="#03D6F3"></path>
  </symbol>
  <symbol fill="none" xmlns="http://www.w3.org/2000/svg" viewBox="0 0 60 60" id="atom">
    <path d="M30 26.4899C30.9309 26.4899 31.8238 26.8597 32.482 27.518C33.1403 28.1762 33.5101 29.0691 33.5101 30C33.5101 30.9309 33.1403 31.8238 32.482 32.482C31.8238 33.1403 30.9309 33.5101 30 33.5101C29.0691 33.5101 28.1762 33.1403 27.518 32.482C26.8597 31.8238 26.4899 30.9309 26.4899 30C26.4899 29.0691 26.8597 28.1762 27.518 27.518C28.1762 26.8597 29.0691 26.4899 30 26.4899ZM2.69132 2.69132C7.71078 -2.32814 18.5921 -0.0816716 30 7.39487C41.4079 -0.0816716 52.2892 -2.32814 57.3087 2.69132C62.3281 7.71078 60.0817 18.5921 52.6051 30C60.0817 41.4079 62.3281 52.2892 57.3087 57.3087C52.2892 62.3281 41.4079 60.0817 30 52.6051C18.5921 60.0817 7.71078 62.3281 2.69132 57.3087C-2.32814 52.2892 -0.0816716 41.4079 7.39487 30C-0.0816716 18.5921 -2.32814 7.71078 2.69132 2.69132ZM42.4258 17.5742C44.567 19.7505 46.5326 21.9618 48.3579 24.1732C53.2018 16.6967 54.9569 10.2732 52.3243 7.67568C49.7268 5.04309 43.3033 6.79815 35.8268 11.6421C38.0382 13.4674 40.2495 15.433 42.4258 17.5742ZM17.5742 42.4258C15.433 40.2495 13.4674 38.0382 11.6421 35.8268C6.79815 43.3033 5.04309 49.7268 7.67568 52.3243C10.2732 54.9569 16.6967 53.2018 24.1732 48.3579C21.9618 46.5326 19.7505 44.567 17.5742 42.4258ZM7.67568 7.67568C5.04309 10.2732 6.79815 16.6967 11.6421 24.1732C13.4674 21.9618 15.433 19.7505 17.5742 17.5742C19.7505 15.433 21.9618 13.4674 24.1732 11.6421C16.6967 6.79815 10.2732 5.04309 7.67568 7.67568ZM22.5586 37.4414C25.0156 39.8985 27.5429 42.145 30 44.1458C32.4571 42.145 34.9844 39.8985 37.4414 37.4414C39.8985 34.9844 42.145 32.4571 44.1458 30C42.145 27.5429 39.8985 25.0156 37.4414 22.5586C34.9844 20.1015 32.4571 17.855 30 15.8542C27.5429 17.855 25.0156 20.1015 22.5586 22.5586C20.1015 25.0156 17.855 27.5429 15.8542 30C17.855 32.4571 20.1015 34.9844 22.5586 37.4414ZM52.3243 52.3243C54.9569 49.7268 53.2018 43.3033 48.3579 35.8268C46.5326 38.0382 44.567 40.2495 42.4258 42.4258C40.2495 44.567 38.0382 46.5326 35.8268 48.3579C43.3033 53.2018 49.7268 54.9569 52.3243 52.3243Z" fill="white"></path>
  </symbol>
</svg>